<svg width="100" height="100" viewBox="0 0 100 100" fill="none" xmlns="http://www.w3.org/2000/svg">
<path d="M16.0479 40.9028C15.3409 34.6712 22.4997 24 35.0963 24C42.426 24 48 27.361 48 34.586C48 42.716 35.8693 48.9271 29.0394 49.8334C22.086 50.756 16.8368 47.8563 16.0479 40.9028Z" fill="#FCD34D"/>
<path d="M62.7813 49.4296C67.0943 48.9414 68.4795 48.4263 71.4693 46.1987C75.9088 42.8919 82.5318 42.8769 84.4256 49.2023C85.8819 54.0673 84.4778 60.1033 81.2459 62.8706C75.8038 67.5309 65.7318 68.3642 59.4799 64.7689C54.0901 61.6698 52.3581 55.7076 55.7189 51.822C56.8587 50.5041 58.6503 49.8971 62.7813 49.4296Z" fill="#86EFAC"/>
<path d="M27.7323 67.0029C25.5384 65.8564 19.0566 64.979 19.0566 67.932C19.0566 69.3383 20.2259 75.0168 26.4978 78.3512C40.1088 84.1668 46.7988 81.5285 52.6419 78.7288C58.4849 75.9292 59.6156 71.828 58.7592 70.0406C57.9029 68.2533 54.9242 62.5114 45.4204 67.0651C35.9166 71.6187 29.9263 68.1494 27.7323 67.0029Z" fill="#4894FF"/>
<path d="M44.8802 25C38.6394 25 34.7479 30.0314 33.5822 32.5471C31.9286 33.5938 29.8643 34.1643 28.4712 34.1643C28.7857 36.7188 30.4438 39.2856 31.6992 40.0942C34.6786 42.0134 34.6582 42.8795 33.5822 43.5982C27.3413 49.2046 27.5745 57.4346 28.4712 60.8488C32.7752 73.7867 45.1492 75.5836 50.7983 74.8648C64.5711 73.3554 68.0144 66.7969 69.8974 63.8137C71.3993 61.4341 72 57.0313 72 55.4688C72 49.7612 69.718 42.7896 68.0144 40.0942C67.6557 40.9927 66.0775 43.167 62.6343 44.6764C58.5455 45.7545 54.385 44.4967 52.9503 43.5982C57.2543 39.07 56.7163 33.805 55.9093 31.7385C54.8333 29.4923 51.1211 25 44.8802 25Z" stroke="#3D3D3C" stroke-width="5"/>
</svg>
